<svg xmlns="http://www.w3.org/2000/svg" width="37" height="37" viewBox="0 0 37 37">
    <path fill="#4B4B4B" fill-rule="nonzero" d="M34.765 1.738a5.955 5.955 0 0 0-8.41 0L2.53 25.565c-.012.011-.018.025-.028.037-.014.016-.026.033-.039.05a.643.643 0 0 0-.082.158c-.006.017-.015.033-.02.05-.001.006-.005.013-.007.02L.017 35.69a.655.655 0 0 0-.014.134c0 .008-.003.016-.003.025a.657.657 0 0 0 .063.266.66.66 0 0 0 .13.196.665.665 0 0 0 .619.175l9.812-2.335c.017-.004.033-.014.05-.02a.61.61 0 0 0 .199-.107c.016-.013.032-.022.047-.036l.017-.013 23.828-23.827a5.954 5.954 0 0 0 0-8.41zm-.934.935a4.63 4.63 0 0 1 .43 6.037l-6.467-6.467a4.63 4.63 0 0 1 6.037.43zm-3.27 9.811l-6.541-6.54.934-.935 6.54 6.54-.933.935zM3.278 33.226a.66.66 0 0 0-.934 0l-.5.5 1.687-7.088 2.922-.324-.376 3.384c-.003.025.006.048.006.072 0 .026-.01.048-.006.073.002.022.013.04.018.06a.671.671 0 0 0 .162.313.662.662 0 0 0 .104.089c.03.02.058.04.09.055.044.021.09.033.138.044.025.006.045.02.071.023a.649.649 0 0 0 .072.004h.002a.658.658 0 0 0 .073-.004l3.384-.376-.325 2.922-7.088 1.687.5-.5a.661.661 0 0 0 0-.934zm8.292-3.62L26.355 14.82a.66.66 0 1 0-.934-.934L10.636 28.672l-3.154.35.35-3.154L22.62 11.083a.66.66 0 1 0-.934-.934L6.898 24.934l-2.103.234 18.29-18.29 6.541 6.54-18.29 18.291.234-2.103zm20.86-18.99l-6.542-6.541.935-.935 6.541 6.54-.935.936z"/>
</svg>
