<svg xmlns="http://www.w3.org/2000/svg" width="684" height="900" viewBox="0 0 684 900">
    <g fill="#FFD000" fill-rule="nonzero">
        <path d="M131.81 4.846C113.97 9.301 101.965 16.62 68.237 42.06 35.798 66.55 16.337 76.41-10.588 81.177L-32 84.994l14.598 10.498c32.758 23.85 83.686 37.538 125.21 34.035 27.895-2.227 63.574-13.039 71.69-21.634 5.192-5.73 5.192-7.32-1.622-33.71-8.434-31.809-8.754-38.804-2.27-56.298 3.571-9.546 3.571-13.039.65-14.952C170.412-.56 148.68.392 131.81 4.846zM232.54 63.914c24.643 110.69 36.97 184.795 45.405 270.045 5.513 57.248 5.513 246.184 0 298.988-5.193 48.664-17.52 121.502-26.274 153.948l-6.164 24.175 18.49-14.628c115.154-90.97 237.442-138.682 357.778-139.32l44.434-.324 1.94-25.764c1.302-14.315.651-45.8-1.3-69.66-20.762-243.005-154.075-413.81-383.082-489.827-16.87-5.72-35.68-11.45-41.843-12.725-10.365-2.227-10.685-1.903-9.384 5.092zM187.18 233.272C122.956 426.024 18.189 615.911-99.556 753.317c-12.327 14.315-22.063 26.716-21.412 27.354 2.271 2.227 72.66 14.628 100.225 17.807 67.467 7.947 161.54 2.227 205.323-12.401 16.539-5.73 16.87-6.044 20.762-22.9 7.133-29.58 20.11-123.416 24.003-172.393 5.513-69.66 1.951-222.646-6.483-284.035-6.164-45.161-18.49-112.28-20.762-114.508-.32-.637-7.123 17.808-14.918 41.031z"/>
        <path d="M644.12 736.905c-107.37 63.93-254.3 103.695-457.363 123.73-68.768 6.68-264.036 9.546-341.89 4.767-33.738-1.913-61.953-2.865-62.924-1.913-4.222 4.13 6.484 45.799 17.19 67.119 8.104 16.542 17.189 27.992 31.137 40.393l19.46 17.493-24.323 2.227-24.654 2.228v31.17h15.569c25.304 0 58.382-8.585 83.036-21.624l23.033-12.087 17.84 10.498c48.976 28.943 109.96 29.58 163.16 1.59l23.352-12.088 16.87 10.174c27.245 15.904 50.278 21.947 85.307 21.634 34.059 0 65.526-8.909 88.879-24.175l12.327-8.271 14.918 9.222c51.579 31.17 122.607 31.808 172.245 1.59l17.84-10.812 15.238 9.222c22.063 13.363 49.628 21.948 78.493 24.175l24.974 1.903v-31.808l-20.111-2.227c-11.357-.951-25.955-3.492-32.438-5.092l-12.007-3.493 16.219-19.72c40.222-49.302 77.523-148.218 77.523-206.429 0-18.769-5.833-34.662-12.327-34.035-1.28.01-13.276 6.692-26.573 14.639z"/>
    </g>
</svg>
