<svg xmlns="http://www.w3.org/2000/svg" width="52" height="58" viewBox="0 0 52 58">
    <g fill="none" fill-rule="evenodd" transform="translate(1 -2)">
        <ellipse cx="22.718" cy="36.26" stroke="#000" stroke-width="2" rx="22.718" ry="22.539"/>
        <g fill="#FDD835" fill-rule="nonzero">
            <path d="M22.169 2.88c-.801.275-1.323.656-2.769 1.948-1.39 1.244-2.244 1.771-3.46 2.096l-.967.26.712.418c1.597.954 3.988 1.372 5.879 1.046 1.27-.213 2.864-.848 3.202-1.272.215-.281.21-.354-.209-1.527-.513-1.413-.556-1.73-.328-2.551.126-.449.112-.608-.03-.683-.281-.135-1.274-.005-2.03.266zM27.048 5.18c1.57 4.935 2.43 8.257 3.157 12.1.48 2.582 1.232 11.176 1.19 13.6-.045 2.234-.32 5.597-.593 7.108l-.186 1.124.79-.74c4.92-4.6 10.34-7.26 15.857-7.772l2.036-.193-.013-1.18c.003-.656-.152-2.086-.337-3.163C47.03 15.094 40.235 7.86 29.428 5.32c-.797-.192-1.682-.377-1.97-.41-.485-.06-.498-.044-.41.269zM25.623 13.06c-2.18 9.025-6.23 18.082-11.084 24.805-.508.7-.905 1.304-.873 1.33.113.092 3.391.374 4.668.408 3.126.09 7.419-.547 9.369-1.388.736-.327.75-.343.861-1.125.21-1.374.432-5.694.415-7.938-.024-3.19-.796-10.135-1.427-12.893-.463-2.03-1.295-5.033-1.408-5.125-.018-.028-.256.838-.521 1.926z"/>
            <path d="M48.592 34.142c-4.67 3.339-11.252 5.737-20.487 7.463-3.128.58-12.073 1.494-15.663 1.59-1.556.047-2.854.117-2.894.165-.178.204.48 2.057 1.055 2.983.438.72.9 1.205 1.59 1.713l.961.717-1.106.2-1.122.2.062.708.062.71.714-.063c1.16-.102 2.644-.625 3.723-1.317l1.008-.642.86.406c2.362 1.12 5.162.904 7.49-.583l1.024-.643.814.395c1.313.614 2.394.796 4 .641 1.561-.136 2.97-.668 3.98-1.456l.532-.425.721.36c2.49 1.21 5.751.954 7.908-.62l.775-.563.736.358c1.065.52 2.363.8 3.696.785l1.154-.014-.064-.723-.063-.724-.931-.02a11.819 11.819 0 0 1-1.509-.102l-.564-.11.665-.963c1.649-2.403 2.966-7.052 2.735-9.7-.075-.854-.406-1.553-.701-1.499-.059.006-.582.358-1.16.773z"/>
        </g>
    </g>
</svg>
