<svg xmlns="http://www.w3.org/2000/svg" width="149" height="176" viewBox="0 0 149 176">
    <g fill="#FDD835" fill-rule="nonzero">
        <path d="M46.09 1.485c-2.894.997-4.78 2.385-10.004 7.09-5.024 4.53-8.108 6.447-12.505 7.628l-3.495.943 2.573 1.529c5.778 3.478 14.423 5.007 21.258 3.824 4.594-.774 10.354-3.083 11.575-4.626.779-1.025.756-1.288-.757-5.564-1.86-5.15-2.015-6.305-1.193-9.298.454-1.634.403-2.213-.11-2.488-1.019-.494-4.61-.021-7.342.962zM63.736 9.875c5.692 17.99 8.811 30.093 11.446 44.101 1.745 9.409 4.484 40.725 4.336 49.557-.156 8.142-1.144 20.394-2.125 25.899l-.672 4.096 2.855-2.693c17.777-16.75 37.366-26.432 57.313-28.283l7.364-.699-.052-4.298c.009-2.392-.556-7.6-1.226-11.528-6.967-39.977-31.552-66.353-70.633-75.63-2.88-.704-6.083-1.38-7.123-1.502-1.752-.22-1.8-.16-1.483.98zM58.604 38.586c-7.856 32.88-22.477 65.874-40.011 90.358-1.837 2.551-3.272 4.748-3.155 4.844.41.336 12.262 1.37 16.88 1.498 11.304.338 26.822-1.975 33.87-5.035 2.66-1.19 2.71-1.246 3.112-4.097.754-5.006 1.545-20.748 1.48-28.922-.096-11.626-2.905-36.932-5.194-46.985-1.677-7.396-4.694-18.342-5.103-18.678-.063-.102-.923 3.054-1.88 7.017z"/>
        <path d="M141.705 115.462c-16.879 12.155-40.669 20.878-74.054 27.144-11.308 2.106-43.65 5.414-56.63 5.751-5.623.173-10.316.424-10.463.596-.64.746 1.74 7.497 3.824 10.876 1.584 2.624 3.257 4.39 5.75 6.243l3.48 2.617-4 .722-4.057.727.226 2.583.226 2.584 2.582-.226c4.196-.367 9.557-2.27 13.457-4.79l3.644-2.337 3.111 1.481c8.542 4.087 18.665 3.308 27.082-2.103l3.697-2.343 2.945 1.442c4.75 2.24 8.657 2.908 14.461 2.348 5.648-.494 10.738-2.427 14.39-5.297l1.924-1.55 2.607 1.313c9.006 4.418 20.795 3.493 28.588-2.236l2.802-2.05 2.661 1.307c3.853 1.895 8.548 2.918 13.368 2.868l4.169-.047-.23-2.636-.231-2.636-3.368-.078c-1.897.007-4.355-.202-5.453-.373l-2.042-.405 2.404-3.504c5.955-8.755 10.707-25.692 9.863-35.34-.273-3.111-1.47-5.66-2.538-5.463-.212.02-2.105 1.302-4.195 2.812z"/>
    </g>
</svg>
