<?xml version="1.0" encoding="UTF-8"?>
<svg width="39px" height="41px" viewBox="0 0 39 41" version="1.1" xmlns="http://www.w3.org/2000/svg" xmlns:xlink="http://www.w3.org/1999/xlink">
    <!-- Generator: Sketch 50.2 (55047) - http://www.bohemiancoding.com/sketch -->
    <title>exit</title>
    <desc>Created with Sketch.</desc>
    <defs></defs>
    <g id="Dashboard---Trips" stroke="none" stroke-width="1" fill="none" fill-rule="evenodd">
        <g id="Desktop-HD-Copy" transform="translate(-1152.000000, -194.000000)" fill="#4B4B4B" fill-rule="nonzero">
            <g id="Profile-Dropdown" transform="translate(1120.000000, 97.000000)">
                <g id="exit" transform="translate(32.187221, 97.700335)">
                    <path d="M38.5854944,17.776274 C38.6591309,17.59838 38.6591309,17.3978848 38.5854944,17.2192617 C38.5483117,17.1295857 38.4943602,17.0486585 38.4272854,16.9808546 L29.6791306,8.23342885 C29.3940628,7.94836105 28.9332882,7.94836105 28.6482204,8.23342885 C28.3631526,8.51849665 28.3631526,8.97927121 28.6482204,9.26433901 L36.1525756,16.7686942 L20.4147916,16.7686942 C20.0116138,16.7686942 19.6857179,17.0945901 19.6857179,17.4977679 C19.6857179,17.9009456 20.0116138,18.2268415 20.4147916,18.2268415 L36.1525756,18.2268415 L28.6482204,25.7311967 C28.3631526,26.0162645 28.3631526,26.4770391 28.6482204,26.7621069 C28.7903898,26.9042762 28.9770326,26.9757254 29.1636755,26.9757254 C29.3503184,26.9757254 29.5369612,26.9042762 29.6791306,26.7621069 L38.4272854,18.013952 C38.4943602,17.9468772 38.5483117,17.8659501 38.5854944,17.776274 Z" id="Shape"></path>
                    <path d="M25.5183072,21.1431362 C25.1151295,21.1431362 24.7892335,21.4690321 24.7892335,21.8722098 L24.7892335,33.5373884 L17.4984969,33.5373884 L17.4984969,5.83258929 C17.4984969,5.51471317 17.2928982,5.23401981 16.9903326,5.13778209 L5.42576618,1.45814732 L24.7892335,1.45814732 L24.7892335,13.1233259 C24.7892335,13.5265036 25.1151295,13.8523996 25.5183072,13.8523996 C25.9214849,13.8523996 26.2473809,13.5265036 26.2473809,13.1233259 L26.2473809,0.729073661 C26.2473809,0.325895926 25.9214849,0 25.5183072,0 L0.729802734,0 C0.706472377,0 0.686058315,0.0109361049 0.663457031,0.0131233259 C0.622628906,0.0167686942 0.586904297,0.0262466518 0.548263393,0.036453683 C0.479730469,0.0546805246 0.418488281,0.079469029 0.359433315,0.115193638 C0.3404774,0.126858817 0.317876116,0.126858817 0.299649275,0.139982143 C0.277047991,0.156750837 0.259550223,0.177893973 0.239136161,0.196120815 C0.226741908,0.207785993 0.213618583,0.217993025 0.201953404,0.230387277 C0.146543806,0.290171317 0.101341239,0.35651702 0.0678038504,0.429424386 C0.0612421875,0.444005859 0.0575968192,0.458587333 0.0517642299,0.473168806 C0.0211431362,0.554825056 0.000729073661,0.640126674 0.000729073661,0.729073661 L0.000729073661,34.2664621 C0.000729073661,34.3575963 0.0218722098,34.443627 0.0532223772,34.5252832 C0.0634294085,34.5522589 0.0787399554,34.5748602 0.0918632813,34.6003778 C0.118839007,34.652142 0.1494601,34.6995318 0.188101004,34.7432762 C0.209244141,34.7666066 0.230387277,34.7877497 0.253717634,34.8088929 C0.296003906,34.8460756 0.343393694,34.8766967 0.39442885,34.9036724 C0.421404576,34.9182539 0.44619308,34.9335645 0.475356027,34.9445006 C0.487750279,34.948875 0.497228237,34.9576239 0.509622489,34.9619983 L16.549243,40.065514 C16.6206922,40.0873862 16.6950578,40.0990513 16.7694233,40.0990513 C16.9225287,40.0990513 17.073447,40.0509325 17.1995767,39.9590692 C17.3876777,39.8220033 17.4984969,39.6032812 17.4984969,39.3699777 L17.4984969,34.9955357 L25.5183072,34.9955357 C25.9214849,34.9955357 26.2473809,34.6696398 26.2473809,34.2664621 L26.2473809,21.8722098 C26.2473809,21.4690321 25.9207559,21.1431362 25.5183072,21.1431362 Z M16.0403496,38.373334 L1.4588764,33.7335092 L1.4588764,1.72571735 L16.0403496,6.36554213 L16.0403496,38.373334 Z" id="Shape"></path>
                </g>
            </g>
        </g>
    </g>
</svg>