<?xml version="1.0" encoding="UTF-8"?>
<svg width="34px" height="34px" viewBox="0 0 34 34" version="1.1" xmlns="http://www.w3.org/2000/svg" xmlns:xlink="http://www.w3.org/1999/xlink">
    <!-- Generator: Sketch 50.2 (55047) - http://www.bohemiancoding.com/sketch -->
    <title>settings</title>
    <desc>Created with Sketch.</desc>
    <defs></defs>
    <g id="Dashboard---Trips" stroke="none" stroke-width="1" fill="none" fill-rule="evenodd">
        <g id="Desktop-HD-Copy" transform="translate(-1151.000000, -128.000000)" fill="#4B4B4B" fill-rule="nonzero">
            <g id="Profile-Dropdown" transform="translate(1120.000000, 97.000000)">
                <g id="settings" transform="translate(31.000000, 31.000000)">
                    <path d="M31.8010059,13.2399868 L29.4484876,12.8408989 C29.2034336,12.0497246 28.8883642,11.2865565 28.5032794,10.558396 L29.8895848,8.61896879 C30.4777143,7.79278678 30.3866943,6.66553844 29.6655354,5.95138111 L27.5790758,3.86492145 C27.1869894,3.47283508 26.6688752,3.25578726 26.1157534,3.25578726 C25.6816578,3.25578726 25.2685667,3.38881657 24.9184896,3.6408721 L22.9720608,5.0271775 C22.2158942,4.62808958 21.4247199,4.29901709 20.6055395,4.0539631 L20.2134531,1.729451 C20.0454161,0.728230431 19.1842263,7.00154246e-05 18.1690027,7.00154246e-05 L15.2213533,7.00154246e-05 C14.2061297,7.00154246e-05 13.3449399,0.728230431 13.1769029,1.729451 L12.7708135,4.10997544 C11.9866407,4.35502943 11.2234726,4.67710038 10.4953122,5.06918676 L8.56988797,3.68288135 C8.21981085,3.43082582 7.7997183,3.29779652 7.36562267,3.29779652 C6.81250082,3.29779652 6.28738513,3.51484433 5.9023003,3.90693071 L3.8088391,5.99339036 C3.09468177,6.70754769 2.99666017,7.83479603 3.58478974,8.66097804 L4.98509823,10.6284115 C4.6000134,11.3635734 4.29194553,12.1267416 4.05389309,12.9179159 L1.72938099,13.3100022 C0.728160416,13.4780393 -2.84217094e-14,14.339229 -2.84217094e-14,15.3544526 L-2.84217094e-14,18.302102 C-2.84217094e-14,19.3173257 0.728160416,20.1785154 1.72938099,20.3465524 L4.10990543,20.7526419 C4.35495941,21.5368146 4.67703036,22.2999828 5.06911674,23.0281432 L3.68981288,24.9465658 C3.10168331,25.7727478 3.19270336,26.8999962 3.91386224,27.6141535 L6.00032189,29.7006131 C6.39240827,30.0926995 6.91052241,30.3097473 7.46364426,30.3097473 C7.8977399,30.3097473 8.3108309,30.176718 8.66090803,29.9246625 L10.6283415,28.524354 C11.3354972,28.8954358 12.0776607,29.1965021 12.8408289,29.4345545 L13.2329153,31.7870728 C13.4009523,32.7882934 14.262142,33.5164538 15.2773657,33.5164538 L18.2320166,33.5164538 C19.2472402,33.5164538 20.10843,32.7882934 20.276467,31.7870728 L20.6755549,29.4345545 C21.4667292,29.1895005 22.2298973,28.8744311 22.9580577,28.4893463 L24.897485,29.8756517 C25.2475621,30.1277072 25.6676547,30.2607365 26.1017503,30.2607365 L26.1017503,30.2607365 C26.6548722,30.2607365 27.1729863,30.0436887 27.5650727,29.6516023 L29.6515323,27.5651427 C30.3656897,26.8509854 30.4637113,25.723737 29.8755817,24.897555 L28.4892763,22.9511262 C28.8743611,22.2159642 29.1964321,21.4527961 29.4344845,20.6686234 L31.7870028,20.276537 C32.7882233,20.1085 33.5163838,19.2473102 33.5163838,18.2320866 L33.5163838,15.2844372 C33.5303869,14.2692136 32.8022264,13.4080238 31.8010059,13.2399868 Z M31.6399704,18.2320866 C31.6399704,18.3231066 31.5769565,18.4001236 31.4859365,18.4141267 L28.5452886,18.9042347 C28.1742069,18.9672485 27.8801421,19.2403087 27.789122,19.5973874 C27.5230634,20.6266141 27.116974,21.6138316 26.5708536,22.5310337 C26.381812,22.8531046 26.3958151,23.2521925 26.6128629,23.5602604 L28.3422439,25.9967972 C28.3912547,26.0668126 28.3842531,26.1718357 28.3212393,26.2348496 L26.2347796,28.3213093 C26.1857688,28.3703201 26.136758,28.3773216 26.1017503,28.3773216 C26.059741,28.3773216 26.0247333,28.3633185 25.9967272,28.3423139 L23.5671919,26.6129329 C23.2661256,26.3958851 22.8600361,26.381882 22.5379652,26.5709237 C21.6207631,27.117044 20.6335456,27.5231334 19.6043189,27.789192 C19.2402387,27.8802121 18.9671785,28.1812784 18.9111662,28.5453586 L18.4140567,31.4860065 C18.4000536,31.5770265 18.3230366,31.6400404 18.2320166,31.6400404 L15.2843672,31.6400404 C15.1933471,31.6400404 15.1163302,31.5770265 15.1023271,31.4860065 L14.6122191,28.5453586 C14.5492052,28.1742769 14.2761451,27.8802121 13.9190664,27.789192 C12.9178458,27.530135 11.951633,27.1310471 11.048434,26.6129329 C10.9014016,26.5289144 10.7333646,26.4869051 10.5723291,26.4869051 C10.3832875,26.4869051 10.1872443,26.5429175 10.0262088,26.6619437 L7.57566894,28.4053278 C7.54066123,28.4263324 7.50565352,28.4403355 7.47064581,28.4403355 C7.44263964,28.4403355 7.3866273,28.433334 7.3376165,28.3843232 L5.25115685,26.2978635 C5.18814296,26.2348496 5.18114142,26.136828 5.23015222,26.0598111 L6.95253166,23.6442789 C7.16957948,23.336211 7.18358257,22.9301216 6.99454092,22.6080506 C6.44842061,21.6978501 6.02832806,20.7106326 5.76226945,19.6814059 C5.66424785,19.3243272 5.37018307,19.0512671 5.00610286,18.9882532 L2.0444504,18.4841421 C1.95343035,18.470139 1.89041646,18.3931221 1.89041646,18.302102 L1.89041646,15.3544526 C1.89041646,15.2634326 1.95343035,15.1864156 2.0444504,15.1724125 L4.96409361,14.6823046 C5.33517536,14.6192907 5.63624168,14.3462305 5.72726173,13.9821503 C5.9863188,12.9529236 6.38540673,11.9587045 6.92452549,11.0415025 C7.11356714,10.7194315 7.09256251,10.3203436 6.8755147,10.0192773 L5.13213062,7.56873742 C5.08311983,7.49872199 5.09012137,7.39369886 5.15313525,7.33068497 L7.23959491,5.24422532 C7.2886057,5.19521452 7.3376165,5.18821298 7.37262421,5.18821298 C7.41463347,5.18821298 7.44964118,5.20221606 7.47764735,5.22322069 L9.8931795,6.94560014 C10.2012474,7.16264795 10.6073368,7.17665104 10.9294078,6.98760939 C11.8396083,6.44148908 12.8268258,6.02139653 13.8560525,5.75533792 C14.2131312,5.65731632 14.4861914,5.36325154 14.5492052,4.99917133 L15.0533163,2.03751887 C15.0673194,1.94649882 15.1443363,1.88348494 15.2353564,1.88348494 L18.1830058,1.88348494 C18.2740258,1.88348494 18.3510428,1.94649882 18.3650459,2.03751887 L18.8551539,4.95716208 C18.9181677,5.32824383 19.1912279,5.62931015 19.5553081,5.72033021 C20.612541,5.98638882 21.6207631,6.39947983 22.5589698,6.95260168 C22.8810408,7.14164333 23.2801287,7.12764024 23.5881966,6.91059243 L26.0037287,5.17420989 C26.0387364,5.15320527 26.0737441,5.13920218 26.1087518,5.13920218 C26.136758,5.13920218 26.1927704,5.14620372 26.2417811,5.19521452 L28.3282408,7.28167418 C28.3912547,7.34468806 28.3982562,7.44270965 28.3492454,7.51972662 L26.6198644,9.94926185 C26.4028166,10.2503282 26.3888135,10.6564176 26.5778552,10.9784886 C27.1239755,11.8956907 27.530065,12.8829081 27.7961236,13.9121349 C27.8871436,14.2762151 28.18821,14.5492753 28.5522902,14.6052876 L31.492938,15.1023971 C31.583958,15.1164002 31.6469719,15.1934172 31.6469719,15.2844372 L31.6469719,18.2320866 L31.6399704,18.2320866 L31.6399704,18.2320866 Z" id="Shape"></path>
                    <path d="M16.7616927,9.52216776 C12.7708135,9.52216776 9.52909929,12.7638819 9.52909929,16.7547611 C9.52909929,20.7456403 12.7708135,23.9873545 16.7616927,23.9873545 C20.7525719,23.9873545 23.994286,20.7456403 23.994286,16.7547611 C23.994286,12.7638819 20.7525719,9.52216776 16.7616927,9.52216776 Z M16.7616927,22.096938 C13.8140433,22.096938 11.4195158,19.7024105 11.4195158,16.7547611 C11.4195158,13.8071118 13.8140433,11.4125842 16.7616927,11.4125842 C19.709342,11.4125842 22.1038696,13.8071118 22.1038696,16.7547611 C22.1038696,19.7024105 19.709342,22.096938 16.7616927,22.096938 Z" id="Shape"></path>
                </g>
            </g>
        </g>
    </g>
</svg>